<svg xmlns="http://www.w3.org/2000/svg" viewBox="0 0 48 48" width="100px" height="100px">
  <path fill="#a5d6a7" d="M47.937,33.923c0-5.6-5.233-10.108-11.797-10.267l0.009-0.01 c-0.612-6.576-7.127-11.688-15.007-11.688c-8.279,0-15.053,5.646-15.053,12.702c0,4.046,2.164,7.527,5.646,9.879l-1.121,4.019 c-0.158,0.565,0.469,1.024,0.96,0.703l4.206-2.747c1.599,0.564,3.481,0.846,5.362,0.846c1.035,0,2.046-0.088,3.024-0.257 l0.042-0.047c1.56,4.156,6.14,7.146,11.577,7.146c1.682,0,3.271-0.28,4.673-0.748l3.265,1.858c0.493,0.28,1.078-0.175,0.927-0.722 l-0.828-3.005C46.348,39.718,47.937,37.007,47.937,33.923z" />
  <path fill="none" stroke="#18193f" stroke-linecap="round" stroke-linejoin="round" stroke-width="3" d="M30.301,12.701 C27.48,9.56,23.009,7.543,18,7.543c-8.481,0-15.42,5.783-15.42,13.011c0,4.144,2.217,7.71,5.783,10.12L6.75,36.457l5.757-3.759 c1.638,0.578,3.566,0.867,5.493,0.867c1.06,0,2.096-0.09,3.098-0.263" />
  <path fill="none" stroke="#18193f" stroke-linecap="round" stroke-linejoin="round" stroke-width="3" d="M30.251,40.319 c0.884,0.167,1.804,0.255,2.749,0.255c1.723,0,3.351-0.287,4.787-0.766l4.713,2.681l-1.266-4.596 c2.585-1.914,4.213-4.691,4.213-7.85c0-1.736-0.491-3.37-1.361-4.81" />
  <path fill="none" stroke="#18193f" stroke-linecap="round" stroke-linejoin="round" stroke-width="3" d="M39.001,20.805 c-1.778-0.825-3.822-1.294-6.001-1.294c-6.894,0-12.447,4.691-12.447,10.532c0,2.638,1.133,5.041,3.01,6.883" />
  <path fill="#18193f" d="M14,16c0,1.1-0.9,2-2,2s-2-0.9-2-2s0.9-2,2-2S14,14.9,14,16z M24,14c-1.1,0-2,0.9-2,2s0.9,2,2,2 s2-0.9,2-2S25.1,14,24,14z" />
  <circle cx="28.5" cy="27.5" r="1.5" fill="#18193f" />
  <circle cx="37.5" cy="27.5" r="1.5" fill="#18193f" />
</svg>